<svg xmlns="http://www.w3.org/2000/svg" viewBox="0 0 512 512">
  <defs>
    <radialGradient id="g" cx="50%" cy="40%" r="60%">
      <stop offset="0%" stop-color="#a855f7"/>
      <stop offset="60%" stop-color="#7c3aed"/>
      <stop offset="100%" stop-color="#4b1e3d"/>
    </radialGradient>
    <filter id="glow" x="-50%" y="-50%" width="200%" height="200%">
      <feGaussianBlur stdDeviation="8" result="b"/>
      <feMerge>
        <feMergeNode in="b"/>
        <feMergeNode in="SourceGraphic"/>
      </feMerge>
    </filter>
  </defs>
  <rect width="512" height="512" fill="none"/>
  <circle cx="256" cy="256" r="210" fill="url(#g)" filter="url(#glow)"/>
  <!-- sparkles -->
  <g fill="#ffffff" opacity="0.95">
    <path d="M170 210l8-28 8 28c3 10 10 17 20 20l28 8-28 8c-10 3-17 10-20 20l-8 28-8-28c-3-10-10-17-20-20l-28-8 28-8c10-3 17-10 20-20z"/>
    <path d="M320 145l6-18 6 18c2 6 6 10 12 12l18 6-18 6c-6 2-10 6-12 12l-6 18-6-18c-2-6-6-10-12-12l-18-6 18-6c6-2 10-6 12-12z"/>
    <path d="M355 330l5-14 5 14c2 5 5 8 10 10l14 5-14 5c-5 2-8 5-10 10l-5 14-5-14c-2-5-5-8-10-10l-14-5 14-5c5-2 8-5 10-10z"/>
  </g>
</svg>


